<?xml version="1.0" encoding="UTF-8" standalone="no"?>
<!-- Created with Inkscape (http://www.inkscape.org/) -->

<svg
   width="45.091454mm"
   height="14.376621mm"
   viewBox="0 0 45.091454 14.376621"
   version="1.1"
   id="svg5"
   xml:space="preserve"
   inkscape:version="1.2.1 (9c6d41e410, 2022-07-14)"
   sodipodi:docname="logo.svg"
   xmlns:inkscape="http://www.inkscape.org/namespaces/inkscape"
   xmlns:sodipodi="http://sodipodi.sourceforge.net/DTD/sodipodi-0.dtd"
   xmlns="http://www.w3.org/2000/svg"
   xmlns:svg="http://www.w3.org/2000/svg"><sodipodi:namedview
     id="namedview7"
     pagecolor="#ffffff"
     bordercolor="#666666"
     borderopacity="1.0"
     inkscape:showpageshadow="2"
     inkscape:pageopacity="0.0"
     inkscape:pagecheckerboard="true"
     inkscape:deskcolor="#d1d1d1"
     inkscape:document-units="mm"
     showgrid="false"
     inkscape:zoom="5.6159371"
     inkscape:cx="10.238719"
     inkscape:cy="55.912307"
     inkscape:window-width="1920"
     inkscape:window-height="986"
     inkscape:window-x="-11"
     inkscape:window-y="-11"
     inkscape:window-maximized="1"
     inkscape:current-layer="text236" /><defs
     id="defs2" /><g
     inkscape:label="Livello 1"
     inkscape:groupmode="layer"
     id="layer1"
     transform="translate(-49.770801,-93.312058)"><g
       aria-label="Tricky"
       id="text236"
       style="font-size:10.5833px;line-height:1.25;letter-spacing:0px;word-spacing:0px;fill:#ffffff;stroke-width:0.264583"><path
         d="m 52.77836,96.13632 q -0.403075,-0.02067 -0.568439,-0.02067 -1.116208,0 -1.617468,0.465087 -0.501259,0.465086 -0.583941,0.82682 -0.02584,0.129191 -0.139526,0.129191 -0.05168,0 -0.09819,-0.04651 0.02584,-0.614948 0.201537,-1.658808 0.248046,-0.0052 0.315225,-0.0052 0.403075,0 1.080034,0.04134 0.728636,0.04134 2.232415,0.04134 1.539953,0 2.005039,-0.03617 0.423746,-0.04134 1.162716,-0.04134 0.06201,0.372069 0.08268,0.775144 0.03101,0.459919 0.06201,0.645953 0.0052,0.04134 0.0052,0.08785 0,0.124023 -0.108521,0.124023 -0.06718,0 -0.113687,-0.04134 -0.04134,-0.04651 -0.19637,-0.294555 -0.268717,-0.418578 -0.558104,-0.63045 -0.289387,-0.217041 -0.645953,-0.279052 -0.356566,-0.06201 -1.441768,-0.08268 -0.06201,0.780311 -0.06201,1.782831 0,3.317619 0.139526,3.911889 0.144694,0.59428 1.018023,0.59428 0.211873,0 0.211873,0.0879 0,0.10335 -0.201538,0.10335 h -3.17809 q -0.124023,0 -0.124023,-0.0982 0,-0.0982 0.242878,-0.0982 0.408243,0 0.656289,-0.22737 0.253213,-0.23254 0.289387,-0.62528 0.04134,-0.39274 0.04134,-2.268593 0,-1.601964 -0.10852,-3.162587 z"
         style="font-family:'Bell MT';-inkscape-font-specification:'Bell MT'"
         id="path291" /><path
         d="m 58.953674,99.350584 q 0.32556,-0.578775 0.692462,-0.868162 0.372069,-0.289387 0.780311,-0.289387 0.28422,0 0.490925,0.206705 0.206705,0.201538 0.206705,0.459919 0,0.490925 -0.418578,0.490925 -0.19637,0 -0.330728,-0.273885 -0.165364,-0.346231 -0.439248,-0.346231 -0.258382,0 -0.532266,0.289388 -0.273884,0.289387 -0.366901,0.635618 -0.09302,0.341063 -0.09302,1.436596 0,1.00252 0.08268,1.15238 0.08268,0.1447 0.423746,0.18604 0.09302,0.0103 0.09302,0.0724 0,0.10852 -0.242878,0.10852 h -1.648473 q -0.1757,0 -0.1757,-0.0879 0,-0.0827 0.232544,-0.093 0.32556,-0.0207 0.403074,-0.20154 0.07751,-0.18087 0.07751,-1.33325 0,-1.68981 -0.07235,-2.030873 -0.06718,-0.341064 -0.516763,-0.361734 -0.186034,-0.01034 -0.186034,-0.09819 0,-0.04651 0.03617,-0.06718 0.04134,-0.02584 0.475422,-0.05168 l 0.950843,-0.05168 q 0.03617,0.279052 0.07751,1.116208 z"
         style="font-family:'Bell MT';-inkscape-font-specification:'Bell MT'"
         id="path293" /><path
         d="m 62.571012,95.650563 q 0.19637,0 0.351398,0.144693 0.155029,0.144694 0.155029,0.315226 0,0.201537 -0.129191,0.346231 -0.124023,0.144693 -0.34623,0.144693 -0.19637,0 -0.351399,-0.124023 -0.155029,-0.129191 -0.155029,-0.346231 0,-0.211873 0.129191,-0.346231 0.134358,-0.134358 0.346231,-0.134358 z m 0.573606,2.526969 -0.0052,1.162716 0.01033,1.085202 v 0.81649 l -0.0052,0.62011 q 0,0.37207 0.118856,0.47542 0.124023,0.0982 0.366901,0.10852 0.28422,0.0155 0.28422,0.11886 0,0.0827 -0.10852,0.0827 -0.04134,0 -0.09302,-0.005 -0.480589,-0.062 -0.893999,-0.062 -0.661456,0 -0.91467,0.0413 -0.05168,0.0103 -0.103353,0.0103 -0.124023,0 -0.124023,-0.093 0,-0.093 0.289387,-0.12919 0.289388,-0.0362 0.366902,-0.12402 0.08268,-0.093 0.08268,-0.51677 l 0.03101,-2.139395 q 0,-0.857826 -0.129191,-1.012854 -0.129191,-0.160197 -0.50126,-0.170532 -0.124023,0 -0.124023,-0.08268 0,-0.04651 0.04134,-0.07235 0.04134,-0.02584 0.614948,-0.06718 0.573606,-0.04134 0.795814,-0.04651 z"
         style="font-family:'Bell MT';-inkscape-font-specification:'Bell MT'"
         id="path295" /><path
         d="m 64.431358,100.53397 q 0,-0.945676 0.604613,-1.65364 0.609779,-0.707965 1.483108,-0.707965 0.563272,0 1.080034,0.279052 0.516763,0.273884 0.516763,0.687294 0,0.160196 -0.09819,0.284219 -0.09819,0.118856 -0.227375,0.118856 -0.289387,0 -0.444416,-0.465087 -0.237711,-0.713132 -0.831988,-0.713132 -0.58911,0 -0.899167,0.511595 -0.30489,0.506427 -0.30489,1.333248 0,0.97151 0.428913,1.58646 0.428913,0.61495 1.033525,0.61495 0.397907,0 0.769977,-0.31006 0.366901,-0.30489 0.428913,-0.74414 0.02584,-0.14986 0.113687,-0.14986 0.09302,0 0.09302,0.093 0,0.50643 -0.470254,0.95084 -0.465087,0.44442 -1.250566,0.44442 -0.857826,0 -1.441768,-0.65112 -0.583942,-0.65112 -0.583942,-1.50895 z"
         style="font-family:'Bell MT';-inkscape-font-specification:'Bell MT'"
         id="path297" /><path
         d="m 70.224267,95.578216 q 0.0155,0.19637 0.0155,0.279052 l -0.0155,0.552936 0.02584,1.984369 0.0052,2.051547 q 0.868161,-0.599444 1.291906,-1.059363 0.423746,-0.465086 0.423746,-0.661456 0,-0.201538 -0.382405,-0.237711 -0.201537,-0.02067 -0.201537,-0.103353 0,-0.06201 0.05168,-0.07751 0.05684,-0.0155 0.459919,-0.0155 l 0.790647,0.0052 q 0.248046,0 0.449583,-0.01033 0.206705,0 0.206705,0.09302 0,0.07235 -0.118855,0.09302 -0.361734,0.06201 -0.620115,0.206705 -0.253214,0.144694 -0.635618,0.552936 -0.356566,0.377237 -0.459919,0.475422 0.744138,0.35657 1.126543,1.98954 0.09302,0.3979 0.268716,0.55293 0.1757,0.15503 0.651121,0.17053 0.155029,0.0103 0.155029,0.0982 0,0.0982 -0.258381,0.0982 h -1.250566 q -0.191202,-0.16536 -0.253214,-0.33589 -0.05684,-0.17053 -0.10852,-0.5271 -0.180867,-1.24023 -0.992184,-1.49861 -0.02584,0.0258 -0.594277,0.43408 -0.0052,0.1602 -0.0052,0.28939 0,0.98185 0.118855,1.21439 0.124024,0.22737 0.423746,0.24288 0.160196,0.005 0.160196,0.0982 0,0.0827 -0.330728,0.0827 h -1.498612 q -0.273884,0 -0.273884,-0.0878 0,-0.0827 0.124023,-0.10335 0.263549,-0.0413 0.330728,-0.093 0.07235,-0.0517 0.149862,-0.21187 0.08268,-0.16019 0.08268,-0.60461 l -0.0052,-0.80098 -0.05684,-3.64318 q 0,-0.614947 -0.124023,-0.857826 -0.118855,-0.248046 -0.480589,-0.30489 -0.129191,-0.02067 -0.129191,-0.09302 0,-0.08785 0.428913,-0.113688 0.19637,-0.0155 0.418578,-0.04651 0.428913,-0.06718 0.635618,-0.07751 z"
         style="font-family:'Bell MT';-inkscape-font-specification:'Bell MT'"
         id="path299" /><path
         d="m 76.735477,101.85688 q 0.563271,-1.52961 0.723468,-2.077383 0.160196,-0.552936 0.160196,-0.883665 0,-0.428913 -0.537433,-0.475421 -0.149861,-0.0155 -0.149861,-0.103353 0,-0.08268 0.118855,-0.08268 0.04134,0 0.279052,0.0155 0.09302,0.0052 0.325561,0.0052 0.687294,0 0.919837,-0.02067 0.103353,-0.01033 0.144694,-0.01033 0.129191,0 0.129191,0.08785 0,0.07751 -0.139526,0.10852 -0.413411,0.09302 -0.656289,0.604612 -0.237711,0.506428 -0.868161,2.361607 -0.614948,1.81384 -0.992185,2.61482 -0.372069,0.80615 -0.780311,1.11104 -0.403075,0.31006 -0.795815,0.31006 -0.403075,0 -0.640786,-0.23255 -0.232543,-0.23254 -0.232543,-0.47542 0,-0.19637 0.155029,-0.34623 0.160196,-0.14986 0.325561,-0.14986 0.423745,0 0.459918,0.42374 0.02067,0.28422 0.253214,0.28422 0.372069,0 0.82682,-0.78031 0.459919,-0.78031 0.459919,-1.21956 0,-0.34623 -0.356566,-1.21956 -0.351399,-0.87333 -0.785479,-1.886182 -0.434081,-1.018023 -0.594277,-1.193722 -0.155029,-0.180867 -0.341064,-0.206705 -0.170532,-0.02067 -0.170532,-0.103353 0,-0.09819 0.124024,-0.09819 0.05168,0 0.118855,0.01034 0.299722,0.03617 0.687294,0.03617 0.826821,0 1.007688,-0.03617 0.10852,-0.02067 0.149861,-0.02067 0.12919,0 0.12919,0.09819 0,0.08268 -0.227375,0.139526 -0.408243,0.10852 -0.408243,0.39274 0,0.242878 1.178219,3.017891 z"
         style="font-family:'Bell MT';-inkscape-font-specification:'Bell MT'"
         id="path301" /></g><ellipse
       style="fill:#004509;fill-opacity:1;fill-rule:evenodd;stroke:none;stroke-width:0.292869;stroke-dasharray:none;stroke-opacity:1"
       id="path2885"
       cx="89.879906"
       cy="98.876625"
       rx="3.9511256"
       ry="4.1597838" /><path
       style="fill:#00a415;fill-opacity:1;stroke-width:0.264583"
       d="m 87.301332,106.56416 c -0.08417,-0.61847 -0.08809,-1.60505 -0.0087,-2.19241 l 0.144327,-1.06792 -1.037688,0.099 c -0.822356,0.0784 -1.208669,-0.0449 -1.861671,-0.59438 -1.608511,-1.35347 -1.746671,-3.705662 -0.332338,-5.658092 0.921895,-1.27264 2.316152,-1.9673 5.565002,-2.77264 1.378839,-0.3418 2.75925,-0.7567 3.067576,-0.92201 0.536962,-0.2879 0.561391,-0.2424 0.579451,1.07922 0.01164,0.85136 0.2891,2.03778 0.724501,3.09788 1.422373,3.463182 0.715134,6.287832 -1.913298,7.641562 -1.32712,0.6835 -3.573944,0.065 -3.93869,-1.08417 l -0.188487,-0.59387 -0.246398,0.65711 c -0.13552,0.36141 -0.169635,1.28219 -0.07581,2.04617 0.09921,0.80787 0.06697,1.38907 -0.07707,1.38907 -0.136213,0 -0.316526,-0.50602 -0.400696,-1.12448 z m 0.874861,-5.14161 c 0,-0.33964 0.249555,-0.39058 1.389063,-0.28351 0.763984,0.0718 1.627187,0.21458 1.918229,0.31733 0.51264,0.18097 0.513291,0.17672 0.0208,-0.13628 -0.279604,-0.1777 -1.080249,-0.45458 -1.779212,-0.61529 -1.695407,-0.38983 -1.357669,-0.948022 0.735282,-1.215252 l 1.552298,-0.1982 -1.389063,-0.0347 c -0.763982,-0.0191 -1.38906,-0.14525 -1.38906,-0.28037 0,-0.42103 0.807871,-1.07724 1.3262,-1.07724 0.272061,0 0.55761,-0.10186 0.634553,-0.22636 0.07695,-0.1245 -0.154154,-0.17015 -0.513551,-0.10145 -0.869495,0.16622 -0.827786,-0.007 0.303377,-1.25892 0.526256,-0.58251 0.834033,-1.0591 0.683945,-1.0591 -0.150087,0 -0.750668,0.54279 -1.334627,1.2062 l -1.061741,1.20621 -0.111726,-0.74318 c -0.08744,-0.58163 -0.121226,-0.51311 -0.155421,0.31515 -0.07325,1.7742 -0.412221,2.00412 -1.365295,0.92604 l -0.818666,-0.92604 0.67731,1.0536 c 1.025472,1.5952 0.842991,2.666282 -0.248733,1.45994 -0.26339,-0.29104 -0.602855,-0.52917 -0.754366,-0.52917 -0.151514,0 0.116869,0.4048 0.596408,0.899562 0.672031,0.69336 0.82905,1.03452 0.685014,1.48834 -0.127006,0.40016 -0.09303,0.53079 0.106058,0.40774 0.16111,-0.0996 0.292928,-0.36735 0.292928,-0.59506 z"
       id="path2778"
       sodipodi:nodetypes="ssccsssssssscssssssssssscssssscsscssscssssssss" /></g></svg>
